<svg width="261" height="44" viewBox="0 0 261 44" fill="none" xmlns="http://www.w3.org/2000/svg">
<path d="M44.5726 4.65952C44.5726 6.29268 43.5603 7.95696 41.5358 9.65235C39.9676 10.9818 38.201 12.0775 36.2948 12.903C31.6985 14.85 26.7175 15.8146 21.6958 15.7301C19.7295 15.6884 17.7741 15.4356 15.8662 14.9764C12.894 19.2369 11.4083 22.7595 11.409 25.5441C11.409 28.8948 13.0582 30.5697 16.3567 30.5691C18.9038 30.5691 21.6474 29.3805 24.5876 27.0033C27.5171 24.487 30.0572 21.5806 32.1308 18.3725C32.7194 18.4357 33.1431 18.4658 33.405 18.4658C34.2009 18.4249 34.9895 18.2987 35.7563 18.0895C33.7964 20.7289 31.2489 24.4191 28.1139 29.16C26.4568 31.7646 24.6084 34.2522 22.5829 36.6036C20.587 38.9523 18.0784 40.8501 15.2348 42.1625C12.6719 43.3193 9.88466 43.9451 7.05401 43.9991C5.58855 44.015 4.13089 43.792 2.74288 43.3397C0.914481 42.6814 0.000277263 41.7393 0.000277263 40.5136C-0.00837208 39.9391 0.210654 39.3829 0.612879 38.9581C0.796157 38.7492 1.02516 38.5819 1.28351 38.4681C1.54186 38.3543 1.82316 38.2968 2.10731 38.2997C3.15092 38.2997 3.67272 38.7707 3.67272 39.7127C3.666 39.763 3.64898 39.8114 3.62264 39.8553C3.3395 39.9571 3.09941 40.1463 2.93987 40.3932C2.78034 40.6401 2.71033 40.9309 2.74079 41.2201C2.74079 41.9735 3.27997 42.5863 4.35837 43.0587C5.19456 43.4008 6.09414 43.5766 7.00287 43.5756C9.70353 43.5137 12.3128 42.6226 14.449 41.0325C16.5362 39.588 18.9855 36.9342 21.797 33.071C24.0171 30.0248 25.65 27.6376 26.6957 25.9094C23.887 27.9835 21.9275 29.3501 20.8171 30.0091C18.7517 31.2373 16.3858 31.9196 13.9585 31.9871C13.0973 32.0328 12.2356 31.9078 11.4267 31.6201C10.6178 31.3323 9.87895 30.8878 9.25601 30.3142C8.66755 29.706 8.21246 28.9902 7.91787 28.2093C7.62329 27.4284 7.49524 26.5984 7.54136 25.7689C7.54136 22.3768 9.35376 18.4983 12.9786 14.1334C8.66499 12.0593 6.50821 9.76609 6.50821 7.25378C6.51213 6.35419 6.78104 5.47409 7.28381 4.71547C7.78657 3.95685 8.5026 3.35078 9.3489 2.96747C10.9896 2.07052 12.8511 1.61501 14.7381 1.64876C15.7905 1.6566 16.8395 1.76688 17.8689 1.97792C18.8874 2.10906 19.8511 2.49916 20.6605 3.10797L20.5635 3.15614H20.3193C19.1847 2.7136 17.9804 2.45877 16.7574 2.40244C14.8954 2.34654 13.0534 2.78658 11.4351 3.67399C10.6207 4.08961 9.94279 4.71524 9.47752 5.48069C9.01225 6.24614 8.77798 7.12113 8.801 8.00748C8.801 10.2067 10.3988 12.0439 13.5943 13.5192C15.3357 11.7921 17.2169 10.2008 19.2204 8.76017C22.1876 6.7199 25.3684 4.9833 28.7109 3.57864C31.9713 2.06614 35.5154 1.20122 39.1313 1.03556C40.3841 0.996798 41.6276 1.25568 42.7515 1.78926C43.3055 2.05379 43.7698 2.4644 44.0903 2.97316C44.4107 3.48193 44.574 4.06784 44.5612 4.66252M42.1118 4.9917C42.1118 2.9504 40.5443 1.92976 37.4093 1.92976C33.9817 2.00026 30.6347 2.94283 27.709 4.66152C23.1795 7.06937 19.2642 10.4167 16.2471 14.4605C18.1119 14.9922 20.036 15.3082 21.9786 15.4019C23.1418 15.3877 24.3032 15.309 25.4569 15.166C29.0659 14.8498 32.5757 13.8577 35.7886 12.2456C40.0013 9.98554 42.1077 7.56724 42.1077 4.9907" fill="#947C4E"/>
<path d="M56.8673 23.1747C56.8673 23.5507 55.9041 24.7125 53.9776 26.6602C52.4755 28.2331 51.1696 29.5043 50.0599 30.4738C49.0616 31.5546 47.6829 32.2423 46.1891 32.4047C44.7191 32.4047 43.9844 31.6507 43.9851 30.1426C44.0844 29.1562 44.3304 28.1886 44.7156 27.2693L41.3844 30.4427C39.7842 31.7493 38.4275 32.403 37.3143 32.4037C35.2563 32.4037 34.2277 31.2138 34.2284 28.8339C34.2284 26.0788 35.9267 23.3232 39.3233 20.5674C43.0107 17.5607 46.0316 16.0573 48.3859 16.0573C50.0842 16.0573 50.9497 16.7484 50.9824 18.1307L52.2567 16.3413H55.3875L47.7452 27.2242C47.1427 28.0205 46.8015 28.9718 46.7652 29.9559C46.7652 30.7397 47.0919 31.1332 47.7452 31.1332C48.6 31.0428 49.3919 30.6578 49.9743 30.0493C50.8092 29.3267 51.9112 28.2592 53.2805 26.8468C54.3513 25.8559 55.3194 24.7672 56.1712 23.5962C56.3994 23.2189 56.5793 23.0302 56.7108 23.0302C56.7307 23.0275 56.751 23.0293 56.7701 23.0355C56.7892 23.0416 56.8065 23.052 56.8207 23.0657C56.8349 23.0795 56.8455 23.0962 56.8518 23.1146C56.8581 23.133 56.8598 23.1525 56.8569 23.1717M50.0964 18.2662C50.0964 17.0773 49.5906 16.4825 48.579 16.4818C47.1096 16.4818 45.1501 17.7196 42.7004 20.1951C40.9728 21.92 39.4302 23.8079 38.096 25.8302C37.4305 26.7439 37.0408 27.8168 36.9699 28.9303C36.9324 29.163 36.9518 29.4009 37.0264 29.6251C37.101 29.8494 37.2289 30.0539 37.3999 30.2224C37.5709 30.391 37.7803 30.5189 38.0116 30.5962C38.2429 30.6734 38.4898 30.6978 38.7326 30.6675C40.8894 30.6675 44.0411 27.6935 48.1877 21.7456L49.7531 19.4905C49.988 19.1244 50.107 18.7003 50.0954 18.2702" fill="#947C4E"/>
<path d="M71.9067 4.94056C71.8579 5.57327 71.6194 6.17879 71.22 6.68379L57.3568 26.4213C56.5762 27.3696 56.0994 28.5157 55.9845 29.7201C55.9845 30.538 56.3601 30.9445 57.1115 30.9445C58.0584 30.9445 59.5852 29.979 61.6919 28.0481C63.2394 26.7582 64.5837 25.2589 65.6827 23.5972C65.9112 23.1878 66.1241 22.984 66.3203 22.984C66.3402 22.9812 66.3606 22.9828 66.3797 22.9889C66.3988 22.9949 66.4162 23.0052 66.4305 23.0188C66.4448 23.0325 66.4556 23.0491 66.462 23.0675C66.4684 23.0858 66.4703 23.1054 66.4675 23.1245C66.4675 23.5019 65.4552 24.7426 63.4306 26.8468C62.194 28.1687 60.8693 29.4117 59.4649 30.5681C58.3549 31.6273 56.9036 32.2923 55.3489 32.4539C53.6513 32.4539 52.8022 31.5737 52.8015 29.8134C52.9343 28.2704 53.5304 26.7977 54.5172 25.5743L68.1331 6.16695C68.4489 5.78623 68.6523 5.33067 68.7216 4.84822C68.7092 4.61741 68.6425 4.39232 68.5265 4.18988H71.7617C71.8587 4.66056 71.9088 4.91146 71.9088 4.94257" fill="#947C4E"/>
<path d="M81.3607 4.94056C81.3123 5.57334 81.0737 6.17896 80.674 6.68379L66.8097 26.4213C66.0294 27.3696 65.5529 28.5158 65.4384 29.7201C65.4384 30.538 65.8142 30.9445 66.5645 30.9445C67.5121 30.9445 69.0389 29.979 71.1449 28.0481C72.6927 26.758 74.0376 25.2587 75.1377 23.5972C75.3652 23.1877 75.5781 22.984 75.7753 22.984C75.7952 22.9813 75.8154 22.9831 75.8344 22.9893C75.8534 22.9954 75.8706 23.0056 75.8848 23.0193C75.899 23.0329 75.9097 23.0495 75.916 23.0677C75.9224 23.086 75.9242 23.1054 75.9215 23.1245C75.9215 23.5019 74.9092 24.7426 72.8846 26.8468C71.648 28.1687 70.3234 29.4117 68.9189 30.5681C67.8093 31.6272 66.3582 32.2921 64.8039 32.4539C63.1063 32.4539 62.2569 31.5737 62.2555 29.8134C62.3886 28.2706 62.9842 26.7981 63.9701 25.5743L77.5891 6.16392C77.9044 5.78295 78.1073 5.32749 78.1767 4.84522C78.1645 4.61422 78.0974 4.38898 77.9805 4.18686H81.2157C81.3148 4.65754 81.3628 4.90844 81.3628 4.93955" fill="#947C4E"/>
<path d="M89.1992 23.2218C89.1992 23.5363 88.6945 24.2113 87.685 25.247C85.2102 27.8229 83.6306 29.3952 82.946 29.9639C81.2756 31.448 79.1128 32.3155 76.8409 32.4126C74.1407 32.4126 72.7899 31.1719 72.7885 28.6903C72.7885 26.1158 74.5519 23.3369 78.0786 20.3536C81.5072 17.4632 84.5608 16.0181 87.2394 16.0181C88.5459 16.0181 89.1992 16.4737 89.1992 17.3849C89.1992 18.5471 88.301 19.7561 86.5046 21.0119C85.1673 21.9422 83.7203 22.717 82.1935 23.3202C80.664 23.9131 79.0925 24.4008 77.491 24.7794C76.642 25.974 76.105 27.348 75.9256 28.7847C75.9256 30.2606 76.8043 30.9986 78.5618 30.9986C79.8156 30.9236 81.0271 30.534 82.0756 29.8685C83.0896 29.2568 84.0096 28.5116 84.8088 27.6546C85.6214 26.8043 86.4347 25.9559 87.2488 25.1095C87.6697 24.6795 88.0612 24.2236 88.4207 23.7447C88.6475 23.3044 88.8427 23.0843 89.0062 23.0843C89.1366 23.0843 89.2013 23.1325 89.2013 23.2258M87.2905 17.3839C87.2905 16.7865 86.9151 16.4881 86.1644 16.4887C85.4451 16.4887 84.3834 17.1324 82.9794 18.4196C81.5754 19.7069 80.6448 20.6024 80.1877 21.1062C79.3079 22.0486 78.5054 23.0552 77.7874 24.117C80.2522 23.7354 82.5772 22.7628 84.5479 21.2889C86.377 19.8758 87.2912 18.5712 87.2905 17.3749" fill="#947C4E"/>
<path d="M135.657 4.5663C135.219 4.84973 134.741 5.07175 134.237 5.22567C133.485 5.54013 132.309 6.76483 130.709 8.8998C129.244 10.9278 127.903 13.0355 126.692 15.2123H130.464L130.268 15.7312H126.251C124.065 19.3729 122.481 21.838 121.5 23.1266C119.787 25.5088 117.585 27.5283 115.03 29.0608C111.602 31.0537 107.669 32.0974 103.665 32.0766C102.042 32.0993 100.424 31.8927 98.8641 31.4634C96.8068 30.8994 95.7778 30.0049 95.7771 28.7798C95.7758 28.5039 95.8318 28.2304 95.9418 27.9755C96.0519 27.7207 96.2137 27.4895 96.4178 27.2955C96.6104 27.0932 96.8449 26.9321 97.1063 26.8225C97.3677 26.7129 97.6501 26.6573 97.9353 26.6592C99.0123 26.6592 99.5514 27.0205 99.5528 27.7431C99.5528 27.8696 99.4067 28.0653 99.1114 28.3322C98.975 28.4471 98.8655 28.5883 98.7899 28.7468C98.7144 28.9052 98.6746 29.0772 98.6731 29.2515C98.6731 30.0664 99.342 30.7101 100.68 31.1824C101.649 31.5454 102.677 31.7371 103.717 31.7484C106.682 31.781 109.576 30.87 111.948 29.1572C114.188 27.4713 116.097 25.4133 117.583 23.0805L122.091 15.8255H120.132L120.425 15.2123H122.433C124.492 12.5234 125.896 10.7879 126.646 10.0058C128.162 8.35024 129.98 6.97542 132.01 5.94925C133.083 5.33268 134.225 4.83635 135.415 4.46997C135.461 4.4698 135.506 4.47862 135.548 4.49588C135.59 4.51313 135.628 4.53848 135.659 4.57033M145.506 0.42351C145.506 0.643296 145.178 0.864089 144.526 1.08387C141.626 2.0409 138.578 2.519 135.511 2.49792C132.853 2.31159 130.206 1.99673 127.58 1.55455C126.007 1.33 124.419 1.21996 122.828 1.22537C119.142 1.18505 115.539 2.27476 112.541 4.33649C110.224 5.80235 108.335 7.81328 107.054 10.1784C106.248 11.8291 105.83 13.6304 105.829 15.4542C105.811 16.8224 106.337 18.1455 107.3 19.1534C107.753 19.6602 108.318 20.0645 108.953 20.3373C109.588 20.6102 110.278 20.745 110.973 20.7321C112.128 20.7029 113.267 20.4628 114.329 20.0245C115.404 19.6426 116.393 19.067 117.244 18.3285C117.605 17.9947 117.998 17.6952 118.419 17.4343C118.449 17.4453 118.474 17.4646 118.491 17.4897C118.509 17.5148 118.519 17.5445 118.518 17.5748C118.518 17.827 118.175 18.1723 117.488 18.6105L115.333 20.3076C114.372 21.0445 113.286 21.6181 112.124 22.0036C110.993 22.4365 109.792 22.6743 108.576 22.7061C107.822 22.749 107.068 22.6174 106.378 22.3223C105.688 22.0272 105.082 21.5772 104.61 21.0101C103.738 19.8315 103.306 18.4033 103.386 16.9586C103.386 13.3457 105.28 9.79667 109.068 6.31155C111.338 4.28426 114.002 2.70731 116.906 1.67096C119.843 0.575246 122.965 0.00882571 126.116 0C128.499 0.0753545 130.873 0.31955 133.218 0.730607C135.548 1.13781 137.906 1.38132 140.272 1.45921C141.698 1.53489 143.123 1.29454 144.437 0.756702C144.743 0.574839 145.073 0.432126 145.417 0.332181C145.43 0.330367 145.444 0.331531 145.457 0.335565C145.469 0.339598 145.481 0.346388 145.49 0.355426C145.5 0.364465 145.507 0.375503 145.511 0.387661C145.516 0.39982 145.517 0.412775 145.515 0.425516" fill="#947C4E"/>
<path d="M146.92 23.1747C146.92 23.5507 145.957 24.7125 144.03 26.6602C142.528 28.2331 141.222 29.5043 140.112 30.4738C139.114 31.5545 137.735 32.2423 136.242 32.4047C134.772 32.4047 134.038 31.6507 134.038 30.1426C134.136 29.1561 134.382 28.1884 134.768 27.2693C132.677 29.2598 131.566 30.3176 131.437 30.4427C129.837 31.7493 128.48 32.403 127.367 32.4037C125.31 32.4037 124.281 31.2138 124.282 28.8339C124.282 26.0788 125.98 23.3232 129.376 20.5674C133.063 17.5607 136.084 16.0573 138.439 16.0573C140.137 16.0573 141.003 16.7484 141.036 18.1307L142.31 16.3413H145.441L137.799 27.2242C137.196 28.0203 136.855 28.9717 136.819 29.9559C136.819 30.7397 137.145 31.1332 137.799 31.1332C138.654 31.0426 139.445 30.6576 140.028 30.0493C140.863 29.3267 141.965 28.2592 143.334 26.8468C144.404 25.8557 145.372 24.7671 146.224 23.5962C146.451 23.2189 146.633 23.0302 146.763 23.0302C146.783 23.0275 146.804 23.0293 146.823 23.0355C146.842 23.0416 146.859 23.052 146.873 23.0657C146.888 23.0795 146.898 23.0962 146.904 23.1146C146.911 23.133 146.912 23.1525 146.91 23.1717M140.15 18.2662C140.15 17.0773 139.644 16.4825 138.631 16.4818C137.161 16.4818 135.202 17.7196 132.753 20.1951C131.025 21.9198 129.481 23.8077 128.147 25.8302C127.481 26.7441 127.092 27.8169 127.021 28.9303C126.983 29.1631 127.003 29.4011 127.077 29.6255C127.152 29.8498 127.28 30.0543 127.452 30.2229C127.623 30.3914 127.832 30.5193 128.064 30.5965C128.295 30.6736 128.542 30.698 128.785 30.6675C130.942 30.6675 134.093 27.6935 138.239 21.7456L139.805 19.4905C140.039 19.1242 140.158 18.7003 140.147 18.2702" fill="#947C4E"/>
<path d="M161.08 17.38C160.984 17.8749 160.756 18.3375 160.419 18.7228C159.978 19.336 159.627 19.6401 159.365 19.6401C159.202 19.6401 159.121 19.5156 159.121 19.2637V18.7459C159.12 18.2098 158.92 17.6917 158.557 17.2846C158.394 17.0778 158.183 16.9105 157.94 16.7959C157.698 16.6812 157.431 16.6225 157.161 16.6243C156.117 16.6243 154.256 18.1002 151.577 21.0521C148.703 24.2248 147.266 26.8629 147.266 28.9664C147.266 30.443 148.171 31.181 149.98 31.1803C152.446 31.1803 155.587 29.1236 159.404 25.0102C159.781 24.5781 160.128 24.1214 160.44 23.6434C160.577 23.4207 160.743 23.2151 160.932 23.0312C160.952 23.0283 160.973 23.03 160.992 23.0361C161.011 23.0422 161.029 23.0525 161.043 23.0663C161.058 23.08 161.069 23.0968 161.075 23.1152C161.082 23.1337 161.083 23.1534 161.081 23.1727C161.021 23.4528 160.886 23.7126 160.687 23.9254C159.424 25.5423 158.023 27.0553 156.499 28.4485C155.579 29.2976 154.84 29.9415 154.282 30.3804C152.541 31.7868 150.347 32.5692 148.073 32.5943C145.347 32.5943 143.984 31.197 143.984 28.4024C143.984 26.6133 145.046 24.5877 147.168 22.3257C148.819 20.5796 150.716 19.0645 152.804 17.8246C154.484 16.7133 156.45 16.0698 158.486 15.9649C160.217 15.9649 161.082 16.4359 161.082 17.378" fill="#947C4E"/>
<path d="M174.257 23.2218C174.257 23.5363 173.752 24.2113 172.743 25.247C170.266 27.8229 168.687 29.3952 168.006 29.9639C166.335 31.4477 164.171 32.3151 161.899 32.4126C159.199 32.4126 157.848 31.1719 157.846 28.6903C157.846 26.1158 159.609 23.3369 163.137 20.3536C166.567 17.4632 169.621 16.0181 172.297 16.0181C173.604 16.0181 174.258 16.4737 174.258 17.3849C174.258 18.5471 173.359 19.7561 171.562 21.0119C170.225 21.9423 168.779 22.7171 167.253 23.3202C165.723 23.9131 164.152 24.4008 162.55 24.7794C161.701 25.974 161.164 27.3479 160.985 28.7847C160.985 30.2606 161.863 30.9986 163.621 30.9986C164.874 30.9235 166.085 30.5339 167.134 29.8685C168.148 29.2573 169.067 28.5121 169.866 27.6546C170.68 26.8043 171.493 25.9559 172.307 25.1095C172.728 24.6796 173.119 24.2237 173.479 23.7447C173.705 23.3041 173.902 23.0843 174.064 23.0843C174.194 23.0843 174.261 23.1325 174.261 23.2258M172.351 17.3839C172.351 16.7865 171.975 16.4881 171.223 16.4887C170.503 16.4887 169.441 17.1324 168.037 18.4196C166.633 19.7069 165.703 20.6024 165.246 21.1062C164.367 22.0493 163.564 23.0559 162.845 24.117C165.31 23.7358 167.635 22.7632 169.606 21.2889C171.435 19.8758 172.35 18.5712 172.351 17.3749" fill="#947C4E"/>
<path d="M184.783 16.3864H187.012V22.9509H195.531V16.3864H197.76V32.1939H195.531V24.9601H187.012V32.1939H184.783V16.3864Z" fill="#947C4E"/>
<path d="M201.542 24.2896C201.505 23.1951 201.701 22.1047 202.117 21.0854C202.534 20.0662 203.162 19.1394 203.964 18.362C204.767 17.5845 205.725 16.9728 206.782 16.5642C207.838 16.1557 208.971 15.9589 210.109 15.986C211.248 15.9589 212.38 16.1557 213.437 16.5644C214.494 16.9731 215.453 17.585 216.255 18.3626C217.057 19.1403 217.685 20.0673 218.102 21.0868C218.518 22.1064 218.714 23.1969 218.676 24.2917C218.713 25.3862 218.518 26.4766 218.101 27.4959C217.685 28.5152 217.056 29.4419 216.254 30.2194C215.452 30.9968 214.493 31.6085 213.437 32.0171C212.38 32.4257 211.248 32.6224 210.109 32.5953C208.971 32.6223 207.838 32.4254 206.782 32.0166C205.725 31.6079 204.766 30.9959 203.964 30.2183C203.162 29.4406 202.534 28.5137 202.118 27.4942C201.701 26.4748 201.506 25.3843 201.543 24.2896M216.307 24.2896C216.307 20.8303 213.87 17.9942 210.109 17.9942C206.348 17.9942 203.911 20.8293 203.911 24.2896C203.911 27.75 206.348 30.5851 210.109 30.5851C213.87 30.5851 216.307 27.751 216.307 24.2896Z" fill="#947C4E"/>
<path d="M225.892 18.3956H220.598V16.3885H233.413V18.3956H228.12V32.1929H225.892V18.3956Z" fill="#947C4E"/>
<path d="M236.359 16.3864H246.969V18.3936H238.589V23.1055H246.389V25.1126H238.589V30.1807H247.388V32.1879H236.359V16.3864Z" fill="#947C4E"/>
<path d="M251.121 16.3864H253.35V30.1847H260.895V32.1919H251.122L251.121 16.3864Z" fill="#947C4E"/>
</svg>
